<?xml version="1.0" standalone="no"?>
<!DOCTYPE svg PUBLIC "-//W3C//DTD SVG 20010904//EN"
 "http://www.w3.org/TR/2001/REC-SVG-20010904/DTD/svg10.dtd">
<svg version="1.0" xmlns="http://www.w3.org/2000/svg"
 width="626.000000pt" height="596.000000pt" viewBox="0 0 626.000000 596.000000"
 preserveAspectRatio="xMidYMid meet">
<metadata>
Created by potrace 1.15, written by Peter Selinger 2001-2017
</metadata>
<g transform="translate(0.000000,596.000000) scale(0.100000,-0.100000)"
fill="#000000" stroke="none">
<path d="M1455 5946 c-53 -17 -114 -50 -147 -80 -44 -39 -94 -127 -107 -184
-7 -36 -11 -228 -11 -592 l0 -540 180 0 180 0 0 250 0 250 2173 -2 2172 -3 3
-1532 2 -1533 -315 0 -315 0 0 -180 0 -180 343 0 c352 0 387 3 464 43 51 27
115 100 147 167 l31 65 0 1895 0 1895 -27 57 c-34 74 -112 152 -186 186 l-57
27 -2245 2 c-1794 1 -2253 -1 -2285 -11z m467 -291 c105 -70 102 -237 -6 -300
-134 -78 -294 30 -271 182 8 57 72 130 125 143 51 13 110 3 152 -25z m490 25
c72 -20 137 -102 138 -171 0 -32 -26 -97 -48 -123 -65 -72 -208 -72 -274 0
-25 29 -40 74 -39 126 0 77 43 137 118 163 47 17 58 18 105 5z m612 -28 c70
-48 95 -145 57 -220 -36 -71 -87 -102 -167 -102 -130 0 -210 134 -155 256 45
98 171 129 265 66z m2871 -147 l0 -90 -1267 -3 -1268 -2 0 95 0 95 1268 -2
1267 -3 0 -90z"/>
<path d="M260 4328 c-14 -6 -42 -17 -62 -26 -56 -22 -127 -98 -162 -172 l-31
-65 0 -1895 0 -1895 27 -57 c47 -101 136 -174 253 -207 30 -9 616 -11 2275 -9
l2235 3 60 28 c106 49 184 147 205 253 8 43 10 566 8 1924 l-3 1865 -28 57
c-36 74 -107 144 -177 177 l-55 26 -2260 2 c-1558 1 -2268 -2 -2285 -9z m464
-282 c115 -67 119 -231 8 -306 -29 -20 -50 -25 -97 -25 -77 0 -125 30 -160 99
-31 61 -31 83 -3 148 43 100 159 138 252 84z m559 -9 c108 -83 95 -248 -25
-306 -54 -26 -100 -26 -154 -2 -62 28 -97 80 -102 152 -6 76 25 133 90 167 60
32 141 27 191 -11z m534 11 c127 -64 123 -252 -7 -318 -148 -75 -312 86 -240
235 46 95 152 130 247 83z m2893 -158 l0 -90 -1270 0 -1270 0 0 83 c0 46 3 87
7 90 3 4 575 7 1270 7 l1263 0 0 -90z m0 -1996 l0 -1534 -2172 2 -2173 3 -3
1532 -2 1533 2157 2 c1187 2 2166 1 2176 -1 16 -3 17 -84 17 -1537z"/>
</g>
</svg>
