<?xml version="1.0" standalone="no"?>
<!DOCTYPE svg PUBLIC "-//W3C//DTD SVG 20010904//EN"
 "http://www.w3.org/TR/2001/REC-SVG-20010904/DTD/svg10.dtd">
<svg version="1.0" xmlns="http://www.w3.org/2000/svg"
 width="980.000000pt" height="380.000000pt" viewBox="0 0 980.000000 380.000000"
 preserveAspectRatio="xMidYMid meet">
<metadata>
Created by potrace 1.15, written by Peter Selinger 2001-2017
</metadata>
<g transform="translate(0.000000,380.000000) scale(0.100000,-0.100000)"
fill="#000000" stroke="none">
<path d="M5140 3780 c-407 -29 -736 -85 -975 -167 -194 -67 -591 -278 -890
-473 -363 -237 -674 -348 -1105 -395 -300 -32 -666 -97 -945 -166 -686 -172
-1090 -417 -1197 -727 -21 -61 -23 -84 -23 -262 1 -144 5 -218 19 -284 65
-332 210 -552 438 -667 l57 -29 285 0 284 0 40 -73 c129 -234 351 -409 627
-494 85 -26 101 -27 280 -27 177 0 196 2 278 27 180 55 307 129 437 254 78 74
181 212 209 281 l13 32 1938 0 1938 0 13 -32 c23 -56 104 -172 168 -240 148
-159 340 -267 551 -310 79 -16 121 -19 245 -15 183 6 265 26 420 102 188 91
359 253 450 426 l36 69 173 0 c203 0 284 16 411 80 266 135 431 393 474 740
22 169 9 611 -24 873 -37 292 -96 423 -227 509 -118 78 -201 92 -628 103 -366
11 -467 32 -601 128 -244 175 -543 335 -862 461 -343 136 -687 221 -1057 262
-169 19 -1041 28 -1250 14z m995 -300 c446 -23 790 -98 1195 -257 282 -111
539 -247 798 -423 224 -151 308 -169 864 -190 340 -13 371 -20 414 -86 44 -66
78 -344 90 -739 12 -385 -32 -565 -176 -718 -104 -112 -215 -157 -390 -157
l-105 0 -1 148 c-1 122 -6 163 -27 243 -90 343 -343 618 -670 729 -128 43
-198 54 -352 53 -117 0 -156 -5 -240 -27 -112 -29 -273 -104 -355 -165 -146
-109 -278 -272 -345 -428 -59 -136 -76 -221 -82 -395 l-6 -158 -1838 0 -1839
0 0 128 c0 217 -46 380 -160 567 -230 378 -709 563 -1149 444 -104 -28 -269
-100 -342 -150 -220 -149 -382 -437 -419 -743 -7 -56 -9 -129 -5 -172 l7 -74
-204 0 -205 0 -47 31 c-128 86 -212 271 -237 527 -15 149 -8 254 19 314 126
284 870 549 1857 662 121 14 265 34 320 46 316 64 633 197 909 380 252 167
616 367 801 441 207 83 561 144 970 168 195 12 734 12 950 1z m-3989 -1711
c190 -26 363 -126 471 -272 89 -121 127 -250 127 -422 -1 -127 -8 -168 -67
-348 -26 -80 -41 -110 -82 -157 -136 -160 -315 -247 -530 -257 -141 -7 -248
17 -377 84 -101 52 -210 149 -273 245 -73 112 -117 344 -96 515 22 183 71 285
195 409 119 119 227 173 401 200 104 16 137 16 231 3z m5859 -43 c224 -72 390
-247 450 -476 9 -36 19 -119 22 -185 4 -104 1 -138 -22 -250 -29 -146 -48
-184 -131 -275 -226 -244 -604 -301 -899 -135 -83 46 -202 158 -255 239 -90
137 -121 279 -100 456 40 334 257 579 570 646 100 21 266 12 365 -20z"/>
</g>
</svg>
