<?xml version="1.0" standalone="no"?>
<!DOCTYPE svg PUBLIC "-//W3C//DTD SVG 20010904//EN"
 "http://www.w3.org/TR/2001/REC-SVG-20010904/DTD/svg10.dtd">
<svg version="1.0" xmlns="http://www.w3.org/2000/svg"
 width="225.000000pt" height="225.000000pt" viewBox="0 0 225.000000 225.000000"
 preserveAspectRatio="xMidYMid meet">
<metadata>
Created by potrace 1.15, written by Peter Selinger 2001-2017
</metadata>
<g transform="translate(0.000000,225.000000) scale(0.100000,-0.100000)"
fill="#000000" stroke="none">
<path d="M17 2022 c-15 -17 -17 -71 -17 -576 0 -365 4 -564 10 -577 10 -18 24
-19 322 -19 l311 0 -7 -47 c-3 -25 -22 -93 -41 -149 -19 -56 -35 -111 -35
-121 0 -40 15 -43 237 -43 l213 0 0 -83 c0 -125 -24 -117 348 -117 l311 0 3
-37 3 -38 282 -3 283 -2 5 22 c3 13 4 226 3 473 l-3 450 -150 5 -150 5 -3 153
-3 153 -25 9 c-14 6 -43 10 -64 10 l-39 0 -3 258 c-2 201 -6 263 -17 275 -12
16 -87 17 -886 17 -832 0 -873 -1 -888 -18z m1673 -312 l0 -220 -320 0 c-307
0 -321 -1 -340 -20 -19 -19 -20 -33 -20 -265 l0 -245 -450 0 -450 0 0 485 0
485 790 0 790 0 0 -220z m170 -430 l0 -119 -92 -3 -93 -3 -3 -322 -2 -323
-285 0 -285 0 0 445 0 445 380 0 380 0 0 -120z m320 -200 c0 -19 -7 -20 -220
-20 -213 0 -220 1 -220 20 0 19 7 20 220 20 213 0 220 -1 220 -20z m0 -395 l0
-305 -220 0 -220 0 0 305 0 305 220 0 220 0 0 -305z m-733 -280 l11 -25 -179
0 -179 0 0 25 0 25 168 0 167 0 12 -25z"/>
</g>
</svg>
