<?xml version="1.0" standalone="no"?>
<!DOCTYPE svg PUBLIC "-//W3C//DTD SVG 20010904//EN"
 "http://www.w3.org/TR/2001/REC-SVG-20010904/DTD/svg10.dtd">
<svg version="1.0" xmlns="http://www.w3.org/2000/svg"
 width="480.000000pt" height="480.000000pt" viewBox="0 0 480.000000 480.000000"
 preserveAspectRatio="xMidYMid meet">
<metadata>
Created by potrace 1.15, written by Peter Selinger 2001-2017
</metadata>
<g transform="translate(0.000000,480.000000) scale(0.100000,-0.100000)"
fill="#000000" stroke="none">
<path d="M1375 4746 c-98 -31 -160 -79 -198 -151 -16 -30 -22 -64 -25 -137 -9
-212 43 -415 282 -1103 81 -231 133 -418 162 -576 20 -115 24 -265 6 -296 -6
-12 -247 -251 -535 -531 -287 -281 -572 -563 -633 -628 -235 -252 -414 -478
-414 -522 1 -56 278 -410 520 -665 121 -127 130 -133 168 -113 113 58 405 322
959 865 239 234 438 427 442 429 7 2 579 -496 837 -729 295 -267 410 -340 471
-301 7 5 110 152 228 327 235 348 234 347 196 430 -10 22 -49 81 -86 130 -38
50 -95 125 -127 167 -90 118 -192 287 -282 468 -92 185 -130 292 -129 364 2
186 592 1016 1095 1541 154 160 239 231 345 285 109 56 126 82 120 181 -6 95
-57 187 -156 281 -184 176 -335 191 -595 59 -210 -107 -347 -207 -890 -650
l-368 -301 -191 282 c-217 323 -267 392 -370 509 -170 193 -378 339 -552 384
-71 18 -224 19 -280 1z"/>
</g>
</svg>
